<?xml version="1.0" standalone="no"?>
<!DOCTYPE svg PUBLIC "-//W3C//DTD SVG 20010904//EN"
 "http://www.w3.org/TR/2001/REC-SVG-20010904/DTD/svg10.dtd">
<svg version="1.0" xmlns="http://www.w3.org/2000/svg"
 width="234.000000pt" height="235.000000pt" viewBox="0 0 234.000000 235.000000"
 preserveAspectRatio="xMidYMid meet">

<g transform="translate(0.000000,235.000000) scale(0.100000,-0.100000)"
fill="#000000" stroke="none">
<path d="M655 2220 c-174 -18 -289 -66 -383 -162 -71 -72 -118 -150 -144 -245
-22 -76 -23 -91 -23 -633 0 -501 2 -563 18 -632 47 -199 168 -333 369 -406
l73 -27 540 -3 c330 -2 569 1 615 7 204 28 384 165 449 342 42 114 46 170 46
694 0 568 -5 634 -60 753 -26 55 -53 92 -107 146 -81 82 -143 117 -256 148
-73 20 -104 22 -567 24 -269 1 -526 -2 -570 -6z m736 -357 c0 -5 1 -60 2 -123
l2 -115 -138 -3 -137 -3 0 119 c0 65 3 122 7 125 9 10 263 9 264 0z m4 -738
c0 -413 -4 -443 -68 -527 -72 -94 -161 -128 -339 -128 l-108 0 0 105 0 105 60
0 c66 0 116 16 141 46 38 45 43 88 41 428 -1 181 1 333 4 338 3 5 65 7 137 6
l132 -3 0 -370z m287 258 c13 -284 -43 -524 -164 -711 -22 -34 -43 -61 -45
-58 -3 2 5 42 16 87 19 76 21 111 21 434 0 194 3 355 7 358 3 4 41 7 83 7 l77
0 5 -117z"/>
</g>
</svg>
