<?xml version='1.0' encoding='utf-8'?>
<svg xmlns="http://www.w3.org/2000/svg" version="1.1" id="Layer_1" x="0px" y="0px" width="100%" viewBox="0 0 1024 1024">
  <path fill="#76CCEA" opacity="1.000000" stroke="none" d=" M396.183716,432.048676  C396.464569,429.953430 396.745453,427.858215 397.455292,425.292175  C398.626282,423.646301 399.681671,422.562866 400.056549,421.280487  C401.776764,415.396240 403.280975,409.449341 404.909485,403.537781  C411.203796,380.689087 421.679871,359.701965 434.716919,340.118164  C449.766876,317.510651 469.123230,298.843811 491.105560,282.959839  C518.247742,263.347504 548.544983,250.617462 581.435120,245.326035  C600.502930,242.258377 620.066223,242.072525 639.432922,241.133789  C651.167847,240.564972 662.953125,241.039261 674.715820,241.038132  C697.137451,241.035965 719.559143,241.025986 741.980774,241.025055  C755.303589,241.024506 768.626953,240.973312 781.948975,241.079590  C785.749390,241.109879 789.549255,241.881470 793.343872,241.837997  C800.145142,241.760101 806.941345,241.295761 813.741638,241.045288  C817.220093,240.917160 818.779968,242.630157 819.034302,246.154297  C820.247009,262.955750 816.159729,278.459869 807.987244,293.035217  C806.891174,294.990082 806.036438,297.080353 805.070007,299.107941  C805.070007,299.107941 805.033630,299.024872 804.723389,299.070007  C802.981750,300.203857 801.338684,301.100647 800.151123,302.410461  C786.136047,317.868652 768.294067,323.991302 747.916016,323.991364  C705.280457,323.991516 662.643982,323.830933 620.010132,324.096313  C611.445312,324.149567 602.787903,325.250977 594.350281,326.821167  C569.116150,331.517059 546.937500,342.913788 527.439026,359.385010  C524.301514,362.035400 519.082581,363.551422 519.067322,369.125610  C519.067322,369.125610 519.046326,369.049591 518.730469,369.061401  C517.456116,369.688782 516.358887,370.162140 515.559753,370.941193  C503.184784,383.004425 494.820435,397.715729 488.087402,413.397797  C479.688293,432.960419 476.530853,453.559784 477.060669,474.745239  C477.150726,478.343994 475.963531,480.538208 472.987000,482.504059  C466.200897,486.985931 459.516663,491.647552 453.028748,496.550659  C433.794037,511.086853 414.706390,525.811523 398.049530,543.384338  C397.348969,544.123474 396.356445,544.585938 394.663818,545.754517  C396.409882,508.433746 392.259766,471.935089 397.738678,435.647430  C397.904236,434.551086 396.732147,433.252808 396.183716,432.048676 z" />
  <path fill="#A9FEE2" opacity="1.000000" stroke="none" d=" M263.045441,568.108459  C260.651459,573.541748 261.938324,578.579834 264.820129,583.368469  C271.928558,595.180298 279.195892,606.897461 286.215790,618.761292  C292.926025,630.101685 299.380341,641.593201 305.990845,652.992981  C315.442596,669.292297 324.908112,685.583801 334.421082,701.847412  C338.382202,708.619507 342.320129,715.414246 346.552673,722.016541  C353.708496,733.178894 368.076019,736.543030 380.239471,731.005310  C390.140778,726.497498 398.552643,719.937317 406.143463,712.327148  C415.384796,703.062256 424.529510,693.686707 433.385620,684.055298  C444.351593,672.129272 454.967834,659.882080 465.755310,647.791687  C474.261383,638.258240 482.538391,628.503296 491.371796,619.282349  C513.968628,595.693909 536.521973,572.049011 559.703552,549.042175  C570.087463,538.736572 581.983643,529.962280 593.105469,520.390747  C611.102295,504.902374 630.227905,490.931854 650.296448,478.293457  C672.202148,464.498047 694.475220,451.227478 719.222900,443.079559  C735.042969,437.870941 751.026428,432.884308 767.273926,429.347931  C777.598633,427.100647 788.535217,427.539062 799.210632,427.083221  C804.326904,426.864746 810.399780,432.538666 811.937927,438.124359  C814.491150,447.396210 809.489136,455.256165 800.963013,458.612976  C792.021606,462.133331 782.809021,465.045044 774.101257,469.060608  C759.149780,475.955414 744.358521,483.233704 729.769470,490.866119  C719.701355,496.133331 709.859253,501.916779 700.324524,508.099335  C686.680969,516.946167 673.221313,526.106323 660.036438,535.622192  C648.114258,544.226746 636.515076,553.300415 625.060303,562.523376  C616.915161,569.081726 608.965393,575.938843 601.421631,583.176575  C584.177368,599.721313 566.912720,616.267822 550.266174,633.405823  C535.118958,649.000183 520.731689,665.335327 506.097382,681.423950  C498.060974,690.259033 490.304749,699.349365 482.246735,708.164185  C469.798187,721.782043 457.492950,735.550537 444.577911,748.716553  C432.699249,760.825989 419.642975,771.600647 403.915466,778.610962  C390.227295,784.712280 375.895203,788.291809 360.941589,786.859741  C344.835052,785.317261 330.491486,778.633240 317.525116,769.009766  C306.840149,761.079468 299.951965,750.121643 293.465179,738.848572  C284.093719,722.562317 274.752014,706.258972 265.386932,689.969055  C258.106812,677.305725 250.858643,664.623718 243.499802,652.006226  C240.118042,646.207825 236.505066,640.544312 233.102448,634.250488  C233.392609,633.416748 233.629654,633.213135 234.100632,633.354004  C235.505630,635.399475 236.835144,637.097839 237.935638,638.933533  C246.332596,652.939758 254.684891,666.972839 263.183289,681.312683  C266.222778,686.417297 269.130096,691.206726 272.086792,696.345337  C276.087097,703.465027 280.038025,710.235535 284.129791,717.324158  C287.835815,723.776428 291.400940,729.910522 295.019867,736.399475  C299.104156,746.470581 305.428101,754.534546 313.082703,761.617126  C336.206024,783.012512 362.664948,790.158569 393.146362,780.464478  C412.569550,774.287231 428.025238,762.019775 442.232880,748.116150  C452.920380,737.657227 462.899658,726.466370 473.043671,715.462585  C483.180725,704.466370 493.134949,693.301575 503.161407,682.203491  C518.309204,665.436646 532.955627,648.181152 548.724060,632.020142  C566.843323,613.449829 585.586670,595.444397 604.753906,577.955261  C618.962524,564.990601 633.731140,552.491089 649.240967,541.137695  C669.736755,526.134460 690.981628,512.115479 712.309814,498.299164  C733.868591,484.333527 756.910522,473.112640 780.895813,463.865692  C788.032104,461.114471 795.252747,458.520081 802.178284,455.301941  C808.765625,452.240936 811.441589,445.916595 809.871704,439.105377  C808.469299,433.021027 803.210449,428.814301 796.091370,429.102722  C786.650452,429.485107 777.080322,429.679230 767.836731,431.405731  C729.110352,438.639038 693.219177,453.331512 660.348755,474.956909  C640.930542,487.732056 621.714294,500.921539 603.305969,515.092102  C586.884949,527.732849 571.116882,541.367310 556.113892,555.668213  C536.960999,573.924866 518.720764,593.151672 500.370392,612.232788  C489.660461,623.369141 479.521820,635.054138 469.093933,646.462769  C448.016998,669.521912 427.234619,692.863953 405.633698,715.421875  C399.227325,722.112061 390.948334,727.413574 382.725677,731.873108  C366.973083,740.416809 350.810822,735.104492 341.772217,719.515503  C338.186523,713.331116 334.551849,707.175110 330.793091,700.700562  C327.444397,694.926697 324.242126,689.458618 320.889160,683.675293  C303.764954,654.315491 286.756989,625.290833 269.838440,596.214233  C264.601868,587.214539 256.715729,578.942993 261.027527,567.020386  C261.013397,567.009094 261.015289,567.030090 261.224152,566.912109  C261.685638,566.587341 261.875671,566.333679 262.132019,565.826172  C262.465759,565.359375 262.716003,565.155090 263.004761,565.394165  C263.013733,566.557495 263.029572,567.333008 263.045441,568.108459 z" />
  <path fill="#A9FEE2" opacity="1.000000" stroke="none" d=" M508.000000,786.993164  C487.003784,786.993469 466.507263,787.039490 446.011871,786.910217  C444.348114,786.899719 442.691925,785.689697 441.032227,785.037109  C442.102142,783.817688 443.003052,782.376282 444.268250,781.413513  C456.199493,772.333740 467.613373,762.758118 477.345154,751.210938  C484.458679,742.770386 492.415314,735.046021 499.702087,726.744324  C506.340607,719.181213 512.403687,711.109558 519.123901,703.624329  C520.841431,701.711365 524.082092,700.171509 526.630554,700.160217  C543.212280,700.086670 559.795593,700.594299 576.379517,700.673218  C583.934326,700.709229 591.494324,699.926453 599.047363,699.998901  C613.129272,700.133972 627.206360,700.725830 641.288330,700.931885  C652.446655,701.095093 663.610779,701.083557 674.769592,700.938782  C691.349426,700.723633 707.925903,700.228760 724.505920,700.058044  C729.425476,700.007385 734.355408,700.954773 739.274902,700.903320  C749.024658,700.801453 758.768494,700.212280 768.518555,700.032471  C777.174377,699.872742 785.838074,700.115845 794.492981,699.932678  C797.987122,699.858826 798.996155,701.086365 799.082214,704.559448  C799.557861,723.763367 792.199829,739.932068 780.748962,754.821777  C770.609131,768.006653 757.237061,776.653320 742.035889,782.230347  C734.302734,785.067444 725.689270,786.759949 717.462952,786.801025  C647.810059,787.148743 578.154663,786.996033 508.000000,786.993164 z" />
  <path fill="#91E9FE" opacity="1.000000" stroke="none" d=" M805.382812,298.963867  C806.036438,297.080353 806.891174,294.990082 807.987244,293.035217  C816.159729,278.459869 820.247009,262.955750 819.034302,246.154297  C818.779968,242.630157 817.220093,240.917160 813.741638,241.045288  C806.941345,241.295761 800.145142,241.760101 793.343872,241.837997  C789.549255,241.881470 785.749390,241.109879 781.948975,241.079590  C768.626953,240.973312 755.303589,241.024506 741.980774,241.025055  C719.559143,241.025986 697.137451,241.035965 674.715820,241.038132  C662.953125,241.039261 651.167847,240.564972 639.432922,241.133789  C620.066223,242.072525 600.502930,242.258377 581.435120,245.326035  C548.544983,250.617462 518.247742,263.347504 491.105560,282.959839  C469.123230,298.843811 449.766876,317.510651 434.716919,340.118164  C421.679871,359.701965 411.203796,380.689087 404.909485,403.537781  C403.280975,409.449341 401.776764,415.396240 400.056549,421.280487  C399.681671,422.562866 398.626282,423.646301 397.532349,424.887909  C400.566650,405.732483 406.940521,387.374725 415.193085,369.852783  C422.797211,353.707642 431.751892,338.083191 443.885040,324.759460  C454.075500,313.569000 464.148621,302.080109 475.608215,292.284515  C490.516083,279.541321 507.088165,269.091003 525.101379,260.738403  C542.412231,252.711472 560.373352,247.137390 578.837341,243.197830  C588.828613,241.066025 599.254089,240.217926 609.495178,240.130310  C677.560425,239.547867 745.629150,239.365372 813.695862,238.923767  C819.619263,238.885330 821.096741,239.919250 821.082031,246.298157  C821.052979,258.944519 820.894653,271.523132 814.961487,283.093384  C812.189941,288.498169 808.803345,293.587524 805.382812,298.963867 z" />
</svg>