<svg version="1.1" id="Layer_1" xmlns="http://www.w3.org/2000/svg" xmlns:xlink="http://www.w3.org/1999/xlink" x="0px" y="0px"
	 width="100%" viewBox="0 0 1024 1024" enable-background="new 0 0 1024 1024" xml:space="preserve">
<path fill="#76CCEA" opacity="1.000000" stroke="none"
	d="
M396.183716,432.048676
	C396.464569,429.953430 396.745453,427.858215 397.455292,425.292175
	C398.626282,423.646301 399.681671,422.562866 400.056549,421.280487
	C401.776764,415.396240 403.280975,409.449341 404.909485,403.537781
	C411.203796,380.689087 421.679871,359.701965 434.716919,340.118164
	C449.766876,317.510651 469.123230,298.843811 491.105560,282.959839
	C518.247742,263.347504 548.544983,250.617462 581.435120,245.326035
	C600.502930,242.258377 620.066223,242.072525 639.432922,241.133789
	C651.167847,240.564972 662.953125,241.039261 674.715820,241.038132
	C697.137451,241.035965 719.559143,241.025986 741.980774,241.025055
	C755.303589,241.024506 768.626953,240.973312 781.948975,241.079590
	C785.749390,241.109879 789.549255,241.881470 793.343872,241.837997
	C800.145142,241.760101 806.941345,241.295761 813.741638,241.045288
	C817.220093,240.917160 818.779968,242.630157 819.034302,246.154297
	C820.247009,262.955750 816.159729,278.459869 807.987244,293.035217
	C806.891174,294.990082 806.036438,297.080353 805.070007,299.107941
	C805.070007,299.107941 805.033630,299.024872 804.723389,299.070007
	C802.981750,300.203857 801.338684,301.100647 800.151123,302.410461
	C786.136047,317.868652 768.294067,323.991302 747.916016,323.991364
	C705.280457,323.991516 662.643982,323.830933 620.010132,324.096313
	C611.445312,324.149567 602.787903,325.250977 594.350281,326.821167
	C569.116150,331.517059 546.937500,342.913788 527.439026,359.385010
	C524.301514,362.035400 519.082581,363.551422 519.067322,369.125610
	C519.067322,369.125610 519.046326,369.049591 518.730469,369.061401
	C517.456116,369.688782 516.358887,370.162140 515.559753,370.941193
	C503.184784,383.004425 494.820435,397.715729 488.087402,413.397797
	C479.688293,432.960419 476.530853,453.559784 477.060669,474.745239
	C477.150726,478.343994 475.963531,480.538208 472.987000,482.504059
	C466.200897,486.985931 459.516663,491.647552 453.028748,496.550659
	C433.794037,511.086853 414.706390,525.811523 398.049530,543.384338
	C397.348969,544.123474 396.356445,544.585938 394.663818,545.754517
	C396.409882,508.433746 392.259766,471.935089 397.738678,435.647430
	C397.904236,434.551086 396.732147,433.252808 396.183716,432.048676
z"/>
<path fill="#A9FEE2" opacity="1.000000" stroke="none"
	d="
M263.045441,568.108459
	C260.651459,573.541748 261.938324,578.579834 264.820129,583.368469
	C271.928558,595.180298 279.195892,606.897461 286.215790,618.761292
	C292.926025,630.101685 299.380341,641.593201 305.990845,652.992981
	C315.442596,669.292297 324.908112,685.583801 334.421082,701.847412
	C338.382202,708.619507 342.320129,715.414246 346.552673,722.016541
	C353.708496,733.178894 368.076019,736.543030 380.239471,731.005310
	C390.140778,726.497498 398.552643,719.937317 406.143463,712.327148
	C415.384796,703.062256 424.529510,693.686707 433.385620,684.055298
	C444.351593,672.129272 454.967834,659.882080 465.755310,647.791687
	C474.261383,638.258240 482.538391,628.503296 491.371796,619.282349
	C513.968628,595.693909 536.521973,572.049011 559.703552,549.042175
	C570.087463,538.736572 581.983643,529.962280 593.105469,520.390747
	C611.102295,504.902374 630.227905,490.931854 650.296448,478.293457
	C672.202148,464.498047 694.475220,451.227478 719.222900,443.079559
	C735.042969,437.870941 751.026428,432.884308 767.273926,429.347931
	C777.598633,427.100647 788.535217,427.539062 799.210632,427.083221
	C804.326904,426.864746 810.399780,432.538666 811.937927,438.124359
	C814.491150,447.396210 809.489136,455.256165 800.963013,458.612976
	C792.021606,462.133331 782.809021,465.045044 774.101257,469.060608
	C759.149780,475.955414 744.358521,483.233704 729.769470,490.866119
	C719.701355,496.133331 709.859253,501.916779 700.324524,508.099335
	C686.680969,516.946167 673.221313,526.106323 660.036438,535.622192
	C648.114258,544.226746 636.515076,553.300415 625.060303,562.523376
	C616.915161,569.081726 608.965393,575.938843 601.421631,583.176575
	C584.177368,599.721313 566.912720,616.267822 550.266174,633.405823
	C535.118958,649.000183 520.731689,665.335327 506.097382,681.423950
	C498.060974,690.259033 490.304749,699.349365 482.246735,708.164185
	C469.798187,721.782043 457.492950,735.550537 444.577911,748.716553
	C432.699249,760.825989 419.642975,771.600647 403.915466,778.610962
	C390.227295,784.712280 375.895203,788.291809 360.941589,786.859741
	C344.835052,785.317261 330.491486,778.633240 317.525116,769.009766
	C306.840149,761.079468 299.951965,750.121643 293.465179,738.848572
	C284.093719,722.562317 274.752014,706.258972 265.386932,689.969055
	C258.106812,677.305725 250.858643,664.623718 243.499802,652.006226
	C240.118042,646.207825 236.505066,640.544312 233.102448,634.250488
	C233.392609,633.416748 233.629654,633.213135 234.100632,633.354004
	C235.505630,635.399475 236.835144,637.097839 237.935638,638.933533
	C246.332596,652.939758 254.684891,666.972839 263.183289,681.312683
	C266.222778,686.417297 269.130096,691.206726 272.086792,696.345337
	C276.087097,703.465027 280.038025,710.235535 284.129791,717.324158
	C287.835815,723.776428 291.400940,729.910522 295.019867,736.399475
	C299.104156,746.470581 305.428101,754.534546 313.082703,761.617126
	C336.206024,783.012512 362.664948,790.158569 393.146362,780.464478
	C412.569550,774.287231 428.025238,762.019775 442.232880,748.116150
	C452.920380,737.657227 462.899658,726.466370 473.043671,715.462585
	C483.180725,704.466370 493.134949,693.301575 503.161407,682.203491
	C518.309204,665.436646 532.955627,648.181152 548.724060,632.020142
	C566.843323,613.449829 585.586670,595.444397 604.753906,577.955261
	C618.962524,564.990601 633.731140,552.491089 649.240967,541.137695
	C669.736755,526.134460 690.981628,512.115479 712.309814,498.299164
	C733.868591,484.333527 756.910522,473.112640 780.895813,463.865692
	C788.032104,461.114471 795.252747,458.520081 802.178284,455.301941
	C808.765625,452.240936 811.441589,445.916595 809.871704,439.105377
	C808.469299,433.021027 803.210449,428.814301 796.091370,429.102722
	C786.650452,429.485107 777.080322,429.679230 767.836731,431.405731
	C729.110352,438.639038 693.219177,453.331512 660.348755,474.956909
	C640.930542,487.732056 621.714294,500.921539 603.305969,515.092102
	C586.884949,527.732849 571.116882,541.367310 556.113892,555.668213
	C536.960999,573.924866 518.720764,593.151672 500.370392,612.232788
	C489.660461,623.369141 479.521820,635.054138 469.093933,646.462769
	C448.016998,669.521912 427.234619,692.863953 405.633698,715.421875
	C399.227325,722.112061 390.948334,727.413574 382.725677,731.873108
	C366.973083,740.416809 350.810822,735.104492 341.772217,719.515503
	C338.186523,713.331116 334.551849,707.175110 330.793091,700.700562
	C327.444397,694.926697 324.242126,689.458618 320.889160,683.675293
	C303.764954,654.315491 286.756989,625.290833 269.838440,596.214233
	C264.601868,587.214539 256.715729,578.942993 261.027527,567.020386
	C261.013397,567.009094 261.015289,567.030090 261.224152,566.912109
	C261.685638,566.587341 261.875671,566.333679 262.132019,565.826172
	C262.465759,565.359375 262.716003,565.155090 263.004761,565.394165
	C263.013733,566.557495 263.029572,567.333008 263.045441,568.108459
z"/>
<path fill="#A9FEE2" opacity="1.000000" stroke="none"
	d="
M508.000000,786.993164
	C487.003784,786.993469 466.507263,787.039490 446.011871,786.910217
	C444.348114,786.899719 442.691925,785.689697 441.032227,785.037109
	C442.102142,783.817688 443.003052,782.376282 444.268250,781.413513
	C456.199493,772.333740 467.613373,762.758118 477.345154,751.210938
	C484.458679,742.770386 492.415314,735.046021 499.702087,726.744324
	C506.340607,719.181213 512.403687,711.109558 519.123901,703.624329
	C520.841431,701.711365 524.082092,700.171509 526.630554,700.160217
	C543.212280,700.086670 559.795593,700.594299 576.379517,700.673218
	C583.934326,700.709229 591.494324,699.926453 599.047363,699.998901
	C613.129272,700.133972 627.206360,700.725830 641.288330,700.931885
	C652.446655,701.095093 663.610779,701.083557 674.769592,700.938782
	C691.349426,700.723633 707.925903,700.228760 724.505920,700.058044
	C729.425476,700.007385 734.355408,700.954773 739.274902,700.903320
	C749.024658,700.801453 758.768494,700.212280 768.518555,700.032471
	C777.174377,699.872742 785.838074,700.115845 794.492981,699.932678
	C797.987122,699.858826 798.996155,701.086365 799.082214,704.559448
	C799.557861,723.763367 792.199829,739.932068 780.748962,754.821777
	C770.609131,768.006653 757.237061,776.653320 742.035889,782.230347
	C734.302734,785.067444 725.689270,786.759949 717.462952,786.801025
	C647.810059,787.148743 578.154663,786.996033 508.000000,786.993164
M516.500000,784.984680
	C582.131897,784.972534 647.763794,784.989014 713.395569,784.889160
	C718.179932,784.881897 723.005371,784.293762 727.739380,783.528137
	C749.596558,779.992920 767.315247,769.260986 780.656250,751.715454
	C790.518799,738.744629 796.299438,724.061096 797.110840,707.551819
	C797.330750,703.076782 795.848877,701.930908 791.482422,701.936829
	C703.863281,702.056091 616.243835,702.002686 528.624817,702.165222
	C526.160461,702.169800 523.028137,703.536926 521.350342,705.335205
	C512.855103,714.440674 504.580597,723.765259 496.522766,733.262573
	C481.339325,751.158447 465.764923,768.620056 446.495483,782.340759
	C445.800049,782.835938 445.350494,783.676331 444.263458,784.985657
	C468.582916,784.985657 492.041443,784.985657 516.500000,784.984680
z"/>
<path fill="#91E9FE" opacity="1.000000" stroke="none"
	d="
M805.382812,298.963867
	C806.036438,297.080353 806.891174,294.990082 807.987244,293.035217
	C816.159729,278.459869 820.247009,262.955750 819.034302,246.154297
	C818.779968,242.630157 817.220093,240.917160 813.741638,241.045288
	C806.941345,241.295761 800.145142,241.760101 793.343872,241.837997
	C789.549255,241.881470 785.749390,241.109879 781.948975,241.079590
	C768.626953,240.973312 755.303589,241.024506 741.980774,241.025055
	C719.559143,241.025986 697.137451,241.035965 674.715820,241.038132
	C662.953125,241.039261 651.167847,240.564972 639.432922,241.133789
	C620.066223,242.072525 600.502930,242.258377 581.435120,245.326035
	C548.544983,250.617462 518.247742,263.347504 491.105560,282.959839
	C469.123230,298.843811 449.766876,317.510651 434.716919,340.118164
	C421.679871,359.701965 411.203796,380.689087 404.909485,403.537781
	C403.280975,409.449341 401.776764,415.396240 400.056549,421.280487
	C399.681671,422.562866 398.626282,423.646301 397.532349,424.887909
	C400.566650,405.732483 406.940521,387.374725 415.193085,369.852783
	C422.797211,353.707642 431.751892,338.083191 443.885040,324.759460
	C454.075500,313.569000 464.148621,302.080109 475.608215,292.284515
	C490.516083,279.541321 507.088165,269.091003 525.101379,260.738403
	C542.412231,252.711472 560.373352,247.137390 578.837341,243.197830
	C588.828613,241.066025 599.254089,240.217926 609.495178,240.130310
	C677.560425,239.547867 745.629150,239.365372 813.695862,238.923767
	C819.619263,238.885330 821.096741,239.919250 821.082031,246.298157
	C821.052979,258.944519 820.894653,271.523132 814.961487,283.093384
	C812.189941,288.498169 808.803345,293.587524 805.382812,298.963867
z"/>
<path fill="#91E9FE" opacity="1.000000" stroke="none"
	d="
M396.108276,432.461426
	C396.732147,433.252808 397.904236,434.551086 397.738678,435.647430
	C392.259766,471.935089 396.409882,508.433746 394.663818,545.754517
	C396.356445,544.585938 397.348969,544.123474 398.049530,543.384338
	C414.706390,525.811523 433.794037,511.086853 453.028748,496.550659
	C459.516663,491.647552 466.200897,486.985931 472.987000,482.504059
	C475.963531,480.538208 477.150726,478.343994 477.060669,474.745239
	C476.530853,453.559784 479.688293,432.960419 488.087402,413.397797
	C494.820435,397.715729 503.184784,383.004425 515.559753,370.941193
	C516.358887,370.162140 517.456116,369.688782 518.769287,369.068634
	C514.754517,374.533691 510.260773,379.909302 506.040070,385.491333
	C495.209656,399.815002 488.011871,415.967072 483.428802,433.195892
	C481.477325,440.531982 480.778778,448.251648 480.051666,455.848785
	C479.345917,463.222748 479.476257,470.674042 478.907959,478.065887
	C478.777710,479.760132 477.700592,481.888275 476.365204,482.906464
	C459.162903,496.022278 441.578735,508.650513 424.638977,522.092468
	C415.235718,529.554077 406.869934,538.320618 397.996368,546.455261
	C396.784546,547.566162 395.339111,548.422180 393.272888,549.927124
	C393.159332,547.383911 393.041016,545.958801 393.040100,544.533569
	C393.021088,515.036926 392.810425,485.537994 393.145905,456.045288
	C393.233856,448.311646 395.024231,440.597321 396.108276,432.461426
z"/>
<path fill="#91E9FE" opacity="1.000000" stroke="none"
	d="
M233.919083,633.070496
	C233.629654,633.213135 233.392609,633.416748 233.090561,633.886780
	C223.769012,619.566711 213.785706,605.433289 207.778351,589.174866
	C205.272598,582.393188 203.670700,575.168579 206.204651,567.189026
	C206.452225,565.716980 206.316910,564.843750 206.181610,563.970581
	C210.574387,545.110291 221.269348,530.521118 236.031372,518.291809
	C248.190125,508.219116 261.960052,501.744385 277.364746,500.205170
	C300.003876,497.943024 321.077881,502.536804 339.285309,517.616394
	C351.823730,528.000793 360.721313,541.013306 368.887451,554.704407
	C375.133301,565.175903 381.017334,575.862915 387.204041,586.370667
	C387.554382,586.965698 389.191101,586.803345 390.607239,586.989624
	C390.985352,586.985779 391.032013,587.032959 390.980286,587.383911
	C389.602539,590.604675 387.829498,590.699829 386.186249,588.181396
	C383.827576,584.566711 381.717834,580.788452 379.530853,577.062988
	C370.289062,561.319397 361.760986,545.169495 349.850922,531.086792
	C328.842712,506.246094 302.131409,497.348053 270.877899,503.783478
	C244.766556,509.160095 226.091675,525.558105 213.678360,548.839417
	C204.632477,565.804993 205.467697,582.981689 214.822403,599.681274
	C221.075302,610.843628 227.588318,621.860229 233.971893,632.975952
	C233.958862,633.009827 233.919083,633.070496 233.919083,633.070496
z"/>
<path fill="#91E9FE" opacity="1.000000" stroke="none"
	d="
M519.422424,369.044373
	C519.082581,363.551422 524.301514,362.035400 527.439026,359.385010
	C546.937500,342.913788 569.116150,331.517059 594.350281,326.821167
	C602.787903,325.250977 611.445312,324.149567 620.010132,324.096313
	C662.643982,323.830933 705.280457,323.991516 747.916016,323.991364
	C768.294067,323.991302 786.136047,317.868652 800.151123,302.410461
	C801.338684,301.100647 802.981750,300.203857 804.763000,299.092102
	C800.533508,306.463257 793.824341,311.496826 786.618835,316.074371
	C774.566284,323.731110 761.374512,326.155365 747.267029,326.078064
	C704.809937,325.845520 662.346924,325.662354 619.893982,326.141998
	C599.219116,326.375549 579.556946,331.444122 560.661743,340.501221
	C545.337280,347.846680 532.213318,357.767914 519.422424,369.044373
z"/>
<path fill="#91E9FE" opacity="1.000000" stroke="none"
	d="
M418.934998,558.934326
	C427.213379,551.522522 435.279236,543.854675 443.823608,536.763367
	C454.667145,527.763977 465.565094,518.761536 477.048187,510.618683
	C491.296936,500.514709 506.009949,491.035461 520.825134,481.770386
	C531.318909,475.207733 542.112305,469.050079 553.141724,463.438507
	C564.718811,457.548248 576.471741,451.810181 588.628235,447.300446
	C604.372314,441.459778 620.562073,436.802429 636.645813,431.918427
	C638.574585,431.332703 641.039246,432.511414 643.314575,433.288879
	C643.373657,433.705414 643.004211,433.995483 642.620605,433.937256
	C640.148254,433.851593 637.957031,433.392456 635.986206,433.860992
	C602.250305,441.881104 570.920471,456.113892 540.826721,472.789246
	C519.956238,484.353821 499.828339,497.445007 480.282288,511.156555
	C463.620636,522.844604 448.285980,536.420410 432.312042,549.095276
	C427.982269,552.530823 423.463104,555.727661 419.007111,559.008911
	C418.983307,558.983826 418.934998,558.934326 418.934998,558.934326
z"/>
<path fill="#91E9FE" opacity="1.000000" stroke="none"
	d="
M263.375305,567.972046
	C263.029572,567.333008 263.013733,566.557495 263.139465,565.083496
	C268.864319,555.292419 277.819366,552.215332 287.664398,551.080505
	C296.182892,550.098694 302.959320,553.605530 309.149078,559.435303
	C319.190521,568.892700 325.076172,581.066833 331.731750,592.685547
	C343.043152,612.431946 353.721405,632.540161 364.775482,652.435364
	C370.363068,662.491882 380.819397,667.526672 389.638336,663.322144
	C394.622894,660.945679 398.438965,656.113831 402.771698,652.376648
	C404.846924,650.586731 406.899689,648.770813 408.985535,646.986816
	C409.008392,647.007019 409.054413,647.046997 409.054413,647.046997
	C402.930145,656.419556 396.848633,666.082886 384.141479,666.929077
	C374.335968,667.582153 367.527313,662.143982 363.035339,654.046265
	C352.344666,634.774048 342.350525,615.107971 331.360870,596.011963
	C324.531189,584.144531 318.363892,571.787842 308.463867,561.806458
	C299.668518,552.938843 289.716461,550.585876 277.869232,555.608826
	C271.764618,558.196960 266.149475,561.116455 263.375305,567.972046
z"/>
<path fill="#91E9FE" opacity="1.000000" stroke="none"
	d="
M643.566589,433.571411
	C647.460571,438.907410 646.690247,441.534912 640.967712,445.042358
	C625.526611,454.506561 609.829346,463.610046 594.883545,473.808990
	C579.973694,483.983398 565.549011,494.935852 551.473572,506.246460
	C538.367371,516.778198 525.959717,528.183716 513.324463,539.295349
	C506.036560,545.704407 498.907043,552.293518 491.357483,558.905518
	C491.008698,559.009338 490.966492,558.963379 491.013550,558.618408
	C492.853149,555.905762 494.308899,553.156433 496.491455,551.230896
	C514.161926,535.641357 531.864075,520.084167 549.758179,504.752441
	C577.246216,481.200592 607.740540,461.963470 638.896484,443.775757
	C643.457642,441.113068 644.999695,438.684662 643.004211,433.995483
	C643.004211,433.995483 643.373657,433.705414 643.566589,433.571411
z"/>
<path fill="#91E9FE" opacity="1.000000" stroke="none"
	d="
M463.060547,587.053223
	C461.109222,589.479126 459.283630,592.020020 457.185730,594.311646
	C445.655914,606.906433 434.018250,619.402588 422.506989,632.014099
	C418.111877,636.829407 413.954041,641.861267 409.371216,646.920654
	C409.054413,647.046997 409.008392,647.007019 408.993652,646.623291
	C409.444916,645.209229 409.689392,643.979980 410.409515,643.177734
	C426.986023,624.710388 443.603973,606.280212 460.277405,587.900452
	C460.836975,587.283691 462.054108,587.263367 462.988525,586.987244
	C463.012360,587.009460 463.060516,587.053223 463.060547,587.053223
z"/>
<path fill="#91E9FE" opacity="1.000000" stroke="none"
	d="
M390.961853,586.962402
	C391.184998,586.204163 391.216095,585.247253 391.710358,584.767639
	C399.936920,576.785217 408.224823,568.865967 416.486481,560.919739
	C417.104248,560.325562 417.626923,559.632629 418.564392,558.959961
	C418.934998,558.934326 418.983307,558.983826 418.964203,559.351196
	C410.123718,568.711914 401.307800,577.710693 392.457031,586.675049
	C392.162872,586.972900 391.515015,586.921509 391.032013,587.032959
	C391.032013,587.032959 390.985352,586.985779 390.961853,586.962402
z"/>
<path fill="#91E9FE" opacity="1.000000" stroke="none"
	d="
M491.029785,559.032349
	C481.929016,568.307373 472.807190,577.559387 463.372925,586.932373
	C463.060516,587.053223 463.012360,587.009460 462.992676,586.625732
	C463.453491,585.218384 463.702118,583.966553 464.450317,583.206299
	C471.909180,575.627869 479.409668,568.088745 487.019867,560.663025
	C487.976929,559.729126 489.633820,559.512390 490.966492,558.963379
	C490.966492,558.963379 491.008698,559.009338 491.029785,559.032349
z"/>
<path fill="#76CBE9" opacity="1.000000" stroke="none"
	d="
M206.099274,564.347656
	C206.316910,564.843750 206.452225,565.716980 206.390457,566.804565
	C206.134583,566.254150 206.075775,565.489441 206.099274,564.347656
z"/>
<path fill="#8BE9C2" opacity="1.000000" stroke="none"
	d="
M283.988922,717.006042
	C280.038025,710.235535 276.087097,703.465027 272.463989,696.334839
	C278.954865,695.193787 282.119995,690.952698 285.619232,686.261292
	C290.407196,679.842346 290.049103,676.612854 282.286896,674.131897
	C282.286896,672.984924 282.286896,671.767395 282.286896,669.131042
	C277.722870,676.221497 268.254456,673.279480 264.961761,680.741821
	C264.826508,681.048401 263.710297,680.922119 263.051086,680.997559
	C254.684891,666.972839 246.332596,652.939758 237.935638,638.933533
	C236.835144,637.097839 235.505630,635.399475 234.100632,633.354004
	C233.919083,633.070496 233.958862,633.009827 234.224747,632.737610
	C233.991074,629.441162 233.339325,626.433044 233.017227,623.390015
	C231.227905,606.486389 237.708069,592.149048 247.672714,579.265686
	C251.314255,574.557495 256.539124,571.073853 261.041687,567.031616
	C256.715729,578.942993 264.601868,587.214539 269.838440,596.214233
	C286.756989,625.290833 303.764954,654.315491 320.527527,683.726196
	C318.232483,685.060181 315.937195,685.751953 314.155273,687.114868
	C313.291901,687.775330 312.654388,690.324707 313.178650,690.937683
	C315.848633,694.059448 318.638855,696.939880 318.582245,701.484436
	C318.576202,701.970154 320.067505,702.504822 320.892944,702.965271
	C324.786530,705.137024 327.690277,702.175598 330.939484,701.006226
	C334.551849,707.175110 338.186523,713.331116 341.772217,719.515503
	C350.810822,735.104492 366.973083,740.416809 382.725677,731.873108
	C390.948334,727.413574 399.227325,722.112061 405.633698,715.421875
	C427.234619,692.863953 448.016998,669.521912 469.093933,646.462769
	C479.521820,635.054138 489.660461,623.369141 500.370392,612.232788
	C518.720764,593.151672 536.960999,573.924866 556.113892,555.668213
	C571.116882,541.367310 586.884949,527.732849 603.305969,515.092102
	C621.714294,500.921539 640.930542,487.732056 660.348755,474.956909
	C693.219177,453.331512 729.110352,438.639038 767.836731,431.405731
	C777.080322,429.679230 786.650452,429.485107 796.091370,429.102722
	C803.210449,428.814301 808.469299,433.021027 809.871704,439.105377
	C811.441589,445.916595 808.765625,452.240936 802.178284,455.301941
	C795.252747,458.520081 788.032104,461.114471 780.895813,463.865692
	C756.910522,473.112640 733.868591,484.333527 712.309814,498.299164
	C690.981628,512.115479 669.736755,526.134460 649.240967,541.137695
	C633.731140,552.491089 618.962524,564.990601 604.753906,577.955261
	C585.586670,595.444397 566.843323,613.449829 548.724060,632.020142
	C532.955627,648.181152 518.309204,665.436646 503.161407,682.203491
	C493.134949,693.301575 483.180725,704.466370 473.043671,715.462585
	C462.899658,726.466370 452.920380,737.657227 442.232880,748.116150
	C428.025238,762.019775 412.569550,774.287231 393.146362,780.464478
	C362.664948,790.158569 336.206024,783.012512 313.082703,761.617126
	C305.428101,754.534546 299.104156,746.470581 295.196228,736.086060
	C299.584076,732.843262 304.478821,730.758545 303.589020,724.295959
	C303.529663,723.864746 304.297577,723.135315 304.841187,722.835144
	C308.655304,720.728760 308.909668,717.129333 309.014008,713.386597
	C309.180023,707.428467 309.495239,701.473938 309.605377,695.515259
	C309.623627,694.528809 308.919037,693.528931 308.548462,692.535278
	C307.505768,693.169006 306.227234,693.598450 305.466858,694.476685
	C303.579010,696.656982 302.041077,699.140503 300.151550,701.319214
	C297.978973,703.824280 295.651581,706.207520 293.260162,708.507141
	C290.239044,711.412231 287.085388,714.179382 283.988922,717.006042
M292.107391,676.653259
	C291.954437,677.183472 291.801483,677.713684 291.648499,678.243896
	C292.178467,678.159241 292.708435,678.074585 293.238403,677.989929
	C293.025787,677.466553 292.813141,676.943176 292.107391,676.653259
z"/>
<path fill="#76CBE9" opacity="1.000000" stroke="none"
	d="
M261.027527,567.020386
	C256.539124,571.073853 251.314255,574.557495 247.672714,579.265686
	C237.708069,592.149048 231.227905,606.486389 233.017227,623.390015
	C233.339325,626.433044 233.991074,629.441162 234.237793,632.703735
	C227.588318,621.860229 221.075302,610.843628 214.822403,599.681274
	C205.467697,582.981689 204.632477,565.804993 213.678360,548.839417
	C226.091675,525.558105 244.766556,509.160095 270.877899,503.783478
	C302.131409,497.348053 328.842712,506.246094 349.850922,531.086792
	C361.760986,545.169495 370.289062,561.319397 379.530853,577.062988
	C381.717834,580.788452 383.827576,584.566711 386.186249,588.181396
	C387.829498,590.699829 389.602539,590.604675 390.980286,587.383911
	C391.515015,586.921509 392.162872,586.972900 392.457031,586.675049
	C401.307800,577.710693 410.123718,568.711914 418.988007,559.376343
	C423.463104,555.727661 427.982269,552.530823 432.312042,549.095276
	C448.285980,536.420410 463.620636,522.844604 480.282288,511.156555
	C499.828339,497.445007 519.956238,484.353821 540.826721,472.789246
	C570.920471,456.113892 602.250305,441.881104 635.986206,433.860992
	C637.957031,433.392456 640.148254,433.851593 642.620605,433.937256
	C644.999695,438.684662 643.457642,441.113068 638.896484,443.775757
	C607.740540,461.963470 577.246216,481.200592 549.758179,504.752441
	C531.864075,520.084167 514.161926,535.641357 496.491455,551.230896
	C494.308899,553.156433 492.853149,555.905762 491.013550,558.618408
	C489.633820,559.512390 487.976929,559.729126 487.019867,560.663025
	C479.409668,568.088745 471.909180,575.627869 464.450317,583.206299
	C463.702118,583.966553 463.453491,585.218384 462.968872,586.603516
	C462.054108,587.263367 460.836975,587.283691 460.277405,587.900452
	C443.603973,606.280212 426.986023,624.710388 410.409515,643.177734
	C409.689392,643.979980 409.444916,645.209229 408.970764,646.603088
	C406.899689,648.770813 404.846924,650.586731 402.771698,652.376648
	C398.438965,656.113831 394.622894,660.945679 389.638336,663.322144
	C380.819397,667.526672 370.363068,662.491882 364.775482,652.435364
	C353.721405,632.540161 343.043152,612.431946 331.731750,592.685547
	C325.076172,581.066833 319.190521,568.892700 309.149078,559.435303
	C302.959320,553.605530 296.182892,550.098694 287.664398,551.080505
	C277.819366,552.215332 268.864319,555.292419 263.146362,564.695679
	C262.716003,565.155090 262.465759,565.359375 261.918121,565.937805
	C261.308258,566.456116 261.121582,566.714050 261.015289,567.030090
	C261.015289,567.030090 261.013397,567.009094 261.027527,567.020386
z"/>
<path fill="#8CE9C4" opacity="1.000000" stroke="none"
	d="
M284.129791,717.324158
	C287.085388,714.179382 290.239044,711.412231 293.260162,708.507141
	C295.651581,706.207520 297.978973,703.824280 300.151550,701.319214
	C302.041077,699.140503 303.579010,696.656982 305.466858,694.476685
	C306.227234,693.598450 307.505768,693.169006 308.548462,692.535278
	C308.919037,693.528931 309.623627,694.528809 309.605377,695.515259
	C309.495239,701.473938 309.180023,707.428467 309.014008,713.386597
	C308.909668,717.129333 308.655304,720.728760 304.841187,722.835144
	C304.297577,723.135315 303.529663,723.864746 303.589020,724.295959
	C304.478821,730.758545 299.584076,732.843262 295.142395,735.731262
	C291.400940,729.910522 287.835815,723.776428 284.129791,717.324158
z"/>
<path fill="#8CE9C4" opacity="1.000000" stroke="none"
	d="
M263.183289,681.312683
	C263.710297,680.922119 264.826508,681.048401 264.961761,680.741821
	C268.254456,673.279480 277.722870,676.221497 282.286896,669.131042
	C282.286896,671.767395 282.286896,672.984924 282.286896,674.131897
	C290.049103,676.612854 290.407196,679.842346 285.619232,686.261292
	C282.119995,690.952698 278.954865,695.193787 272.414612,695.985657
	C269.130096,691.206726 266.222778,686.417297 263.183289,681.312683
z"/>
<path fill="#8CE9C4" opacity="1.000000" stroke="none"
	d="
M330.793091,700.700562
	C327.690277,702.175598 324.786530,705.137024 320.892944,702.965271
	C320.067505,702.504822 318.576202,701.970154 318.582245,701.484436
	C318.638855,696.939880 315.848633,694.059448 313.178650,690.937683
	C312.654388,690.324707 313.291901,687.775330 314.155273,687.114868
	C315.937195,685.751953 318.232483,685.060181 320.678223,684.041382
	C324.242126,689.458618 327.444397,694.926697 330.793091,700.700562
z"/>
<path fill="#8BE9C2" opacity="1.000000" stroke="none"
	d="
M261.224152,566.912109
	C261.121582,566.714050 261.308258,566.456116 261.789246,566.144775
	C261.875671,566.333679 261.685638,566.587341 261.224152,566.912109
z"/>
<path fill="#8CE9C4" opacity="1.000000" stroke="none"
	d="
M516.000000,784.985168
	C492.041443,784.985657 468.582916,784.985657 444.263458,784.985657
	C445.350494,783.676331 445.800049,782.835938 446.495483,782.340759
	C465.764923,768.620056 481.339325,751.158447 496.522766,733.262573
	C504.580597,723.765259 512.855103,714.440674 521.350342,705.335205
	C523.028137,703.536926 526.160461,702.169800 528.624817,702.165222
	C616.243835,702.002686 703.863281,702.056091 791.482422,701.936829
	C795.848877,701.930908 797.330750,703.076782 797.110840,707.551819
	C796.299438,724.061096 790.518799,738.744629 780.656250,751.715454
	C767.315247,769.260986 749.596558,779.992920 727.739380,783.528137
	C723.005371,784.293762 718.179932,784.881897 713.395569,784.889160
	C647.763794,784.989014 582.131897,784.972534 516.000000,784.985168
z"/>
<path fill="#8CE9C4" opacity="1.000000" stroke="none"
	d="
M292.353943,676.536499
	C292.813141,676.943176 293.025787,677.466553 293.238403,677.989929
	C292.708435,678.074585 292.178467,678.159241 291.648499,678.243896
	C291.801483,677.713684 291.954437,677.183472 292.353943,676.536499
z"/>
</svg>